<svg xmlns="http://www.w3.org/2000/svg" width="69.038" height="62.6" viewBox="0 0 69.038 62.6"><defs><style>.a{fill:#fff;}</style></defs><g transform="translate(-7.559)"><g transform="translate(7.56)"><path class="a" d="M112.88,76.5l1.372,4h2.26v-4Z" transform="translate(-47.475 -28.993)"/><path class="a" d="M65.5,76.364,61.017,88.523V76.364H56.533v7.011l-5.148-7.011H46.771v5.477h-5.3V76.364H36.983v4.347a7.888,7.888,0,0,0-7.5-4.571c-4.564,0-8.073,3.105-8.073,7.651l-2.739-7.452H13.019L7.56,91.162h5.08l.534-1.726H18.5l.534,1.726h5.08l-.851-2.31a8.241,8.241,0,0,0,6.21,2.6,7.858,7.858,0,0,0,7.5-4.577v4.285h4.484V85.747h5.322v5.415h4.484v-7.5l5.459,7.5h8.408l.534-1.726h5.328l.528,1.726H76.6l-5.465-14.8ZM14.372,85.53l1.459-4.769L17.3,85.53ZM29.488,87.5a3.726,3.726,0,1,1,3.552-3.726A3.5,3.5,0,0,1,29.488,87.5M66.829,85.53l1.466-4.769L69.76,85.53Z" transform="translate(-7.56 -28.856)"/><path class="a" d="M41.97,85.28H40.486a1.962,1.962,0,0,0-1.956,1.962v.037a1.962,1.962,0,0,0,1.956,1.962H41.97a1.962,1.962,0,0,0,1.956-1.962v-.037A1.962,1.962,0,0,0,41.97,85.28" transform="translate(-19.297 -32.32)"/><path class="a" d="M67.424,30.73V45.8H35.9V42.38l-3.055,1.13v5.347H70.479V29.6Z" transform="translate(-17.141 -11.218)"/><path class="a" d="M35.9,18.127V3.055H67.424V6.477l3.055-1.13V0H32.84V19.258Z" transform="translate(-17.141)"/><path class="a" d="M28.48,34.041V30.78L71.528,14.87v3.254Z" transform="translate(-15.488 -5.636)"/></g></g></svg>