<svg xmlns="http://www.w3.org/2000/svg" width="601.485" height="306.109" viewBox="0 0 601.485 306.109"><defs><style>.a,.h,.i{fill:none;}.a,.h{stroke:#f66;}.a,.b{opacity:0.5;}.b,.c,.d,.e,.f,.g{fill:#f66;}.d{font-size:7px;}.d,.e,.f,.g{font-family:BPnoScript-Bold, BPnoScript;font-weight:700;}.e{font-size:10px;}.f{font-size:9px;}.g{font-size:8px;}.h{stroke-width:4px;}.i{stroke:#d146fc;stroke-dasharray:2 2;}</style></defs><g transform="translate(-175 -1102.203)"><g transform="translate(175 1102.203)"><line class="a" x2="556.117" transform="translate(45.179 6.989)"/><line class="a" x2="556.117" transform="translate(45.179 79.571)"/><line class="a" x2="556.117" transform="translate(45.179 145.799)"/><line class="a" x2="556.117" transform="translate(45.179 214.163)"/><g transform="translate(547.555 27.513)"><rect class="b" width="5.573" height="36.324" transform="translate(0 220.028)"/><rect class="b" width="5.573" height="128.444" transform="translate(13.648 127.907)"/><path class="b" d="M0,0H5.573V256.352H0V0Z" transform="translate(20.236 0)"/><path class="b" d="M0,0H5.573V207.713H0Z" transform="translate(6.589 48.639)"/><path class="c" d="M0,0H5.573V154.843H0Z" transform="translate(26.825 101.509)"/></g><g transform="translate(475.612 27.513)"><rect class="b" width="5.573" height="36.324" transform="translate(0 220.028)"/><rect class="b" width="5.573" height="128.444" transform="translate(13.648 127.907)"/><path class="b" d="M0,0H5.573V256.352H0V0Z" transform="translate(20.236 0)"/><path class="b" d="M0,0H5.573V207.713H0Z" transform="translate(6.589 48.639)"/><path class="c" d="M0,0H5.573V154.843H0Z" transform="translate(26.825 101.509)"/></g><g transform="translate(408.933 46.027)"><rect class="b" width="5.573" height="33.701" transform="translate(0 204.137)"/><rect class="b" width="5.573" height="119.168" transform="translate(13.648 118.67)"/><path class="b" d="M0,0H5.573V237.838H0V0Z" transform="translate(20.236 0)"/><path class="b" d="M0,0H5.573V192.712H0Z" transform="translate(6.589 45.126)"/><path class="c" d="M0,0H5.573V143.66H0Z" transform="translate(26.825 94.178)"/></g><g transform="translate(344.887 79.571)"><rect class="b" width="5.573" height="28.948" transform="translate(0 175.347)"/><rect class="b" width="5.573" height="102.361" transform="translate(13.648 101.933)"/><path class="b" d="M0,0H5.573V204.295H0V0Z" transform="translate(20.236 0)"/><path class="b" d="M0,0H5.573V165.533H0Z" transform="translate(6.589 38.762)"/><path class="c" d="M0,0H5.573V123.4H0Z" transform="translate(26.825 80.896)"/></g><g transform="translate(201.878 140.216)"><rect class="b" width="5.573" height="20.355" transform="translate(0 123.295)"/><rect class="b" width="5.573" height="71.975" transform="translate(13.648 71.674)"/><path class="b" d="M0,0H5.573V143.65H0V0Z" transform="translate(20.236 0)"/><path class="b" d="M0,0H5.573V116.395H0Z" transform="translate(6.589 27.255)"/><path class="c" d="M0,0H5.573V86.768H0Z" transform="translate(26.825 56.882)"/></g><g transform="translate(125.548 140.216)"><rect class="b" width="5.573" height="20.355" transform="translate(0 123.295)"/><rect class="b" width="5.573" height="71.975" transform="translate(13.648 71.674)"/><path class="b" d="M0,0H5.573V143.65H0V0Z" transform="translate(20.236 0)"/><path class="b" d="M0,0H5.573V116.395H0Z" transform="translate(6.589 27.255)"/><path class="c" d="M0,0H5.573V86.768H0Z" transform="translate(26.825 56.882)"/></g><g transform="translate(58.869 140.216)"><rect class="b" width="5.573" height="20.355" transform="translate(0 123.295)"/><rect class="b" width="5.573" height="71.975" transform="translate(13.648 71.674)"/><path class="b" d="M0,0H5.573V143.65H0V0Z" transform="translate(20.236 0)"/><path class="b" d="M0,0H5.573V116.395H0Z" transform="translate(6.589 27.255)"/><path class="c" d="M0,0H5.573V86.768H0Z" transform="translate(26.825 56.882)"/></g><g transform="translate(268.557 93.457)"><rect class="b" width="5.573" height="26.98" transform="translate(0 163.428)"/><rect class="b" width="5.573" height="95.404" transform="translate(13.648 95.005)"/><path class="b" d="M0,0H5.573V190.409H0V0Z" transform="translate(20.236 0)"/><path class="b" d="M0,0H5.573V154.282H0Z" transform="translate(6.589 36.127)"/><path class="c" d="M0,0H5.573V115.012H0Z" transform="translate(26.825 75.397)"/></g><text class="d" transform="translate(25.293 281.51)"><tspan x="-10.255" y="0">0 %</tspan></text><text class="e" transform="translate(25.096 214.259)"><tspan x="-17.48" y="0">25 %</tspan></text><text class="f" transform="translate(24.297 145.416)"><tspan x="-17.595" y="0">50 %</tspan></text><text class="g" transform="translate(22.996 79.34)"><tspan x="-13.568" y="0">75 %</tspan></text><text class="g" transform="translate(20 6)"><tspan x="-19.816" y="0">100 %</tspan></text><line class="h" y1="0.015" x2="556.117" transform="translate(45.179 282.011)"/><text class="f" transform="translate(73.298 302.209)"><tspan x="0" y="0">Θ’</tspan></text><text class="g" transform="translate(140.131 301.209)"><tspan x="0" y="0">Ι&apos;</tspan></text><text class="g" transform="translate(213.886 301.209)"><tspan x="0" y="0">ΙΑ’</tspan></text><text class="e" transform="translate(282.397 302.209)"><tspan x="0" y="0">ΙΒ&apos;</tspan></text><text class="f" transform="translate(356.43 303.109)"><tspan x="0" y="0">ΙΓ’</tspan></text><text class="g" transform="translate(421.706 301.209)"><tspan x="0" y="0">ΙΔ&apos;</tspan></text><text class="e" transform="translate(487.853 302.209)"><tspan x="0" y="0">IE&apos;</tspan></text><text class="e" transform="translate(563.025 302.209)"><tspan x="0" y="0">IZ’</tspan></text></g><line class="i" y1="62.972" x2="556.899" transform="translate(219.53 1195.129)"/></g></svg>