<svg xmlns="http://www.w3.org/2000/svg" xmlns:xlink="http://www.w3.org/1999/xlink" width="226.37" height="39.305" viewBox="0 0 226.37 39.305"><defs><style>.a{fill:none;}.b{clip-path:url(#a);}.c{fill:#f66;}.d,.f{fill:#fff;}.e,.g{fill:#777eff;}.f{font-size:10px;}.f,.g{font-family:TTNormsPro-BoldItalic, TT Norms Pro;font-weight:700;font-style:italic;}.g{font-size:34px;letter-spacing:-0.04em;}</style><clipPath id="a"><rect class="a" width="226.37" height="39.305"/></clipPath></defs><g class="b"><g transform="translate(-375.394 -245.264)"><g transform="translate(27 -17)"><path class="c" d="M381.873,301.465h20.86l1.981-11.233c1.094-6.2-3.048-11.233-9.252-11.233h-9.628a13.981,13.981,0,0,0-13.213,11.233h0C371.528,296.437,375.669,301.465,381.873,301.465Z" transform="translate(0 0.105)"/><g transform="translate(381.182 288.217)"><ellipse class="d" cx="1.577" cy="1.322" rx="1.577" ry="1.322" transform="matrix(0.738, -0.675, 0.675, 0.738, 0, 2.291)"/><ellipse class="d" cx="1.577" cy="1.322" rx="1.577" ry="1.322" transform="matrix(0.738, -0.675, 0.675, 0.738, 5.444, 2.13)"/><ellipse class="d" cx="1.577" cy="1.322" rx="1.577" ry="1.322" transform="matrix(0.738, -0.675, 0.675, 0.738, 10.832, 2.291)"/></g></g><path class="e" d="M396.587,271.465h-20.86l1.981-11.233A13.981,13.981,0,0,1,390.921,249h9.628c6.2,0,10.346,5.029,9.252,11.233h0A13.982,13.982,0,0,1,396.587,271.465Z" transform="translate(-0.333 3.146)"/><text class="f" transform="translate(391.991 266.282)"><tspan x="-2.725" y="0">?</tspan></text></g><text class="g" transform="translate(76.37 32)"><tspan x="0" y="0">You</tspan><tspan class="c" y="0">Who?</tspan></text></g></svg>
