<svg xmlns="http://www.w3.org/2000/svg" width="30" height="30" viewBox="0 0 30 30"><defs><style>.a{fill:#fff;}.b{fill:#6065cc;}</style></defs><g transform="translate(0 0)"><circle class="a" cx="15" cy="15" r="15"/><path class="b" d="M7.969,1.436c2.128,0,2.38.008,3.221.046,2.16.1,3.168,1.123,3.267,3.267.039.84.046,1.092.046,3.22s-.008,2.38-.046,3.22c-.1,2.142-1.105,3.168-3.267,3.267-.841.039-1.092.046-3.221.046s-2.38-.008-3.22-.046c-2.165-.1-3.168-1.128-3.267-3.267-.039-.84-.046-1.092-.046-3.22s.009-2.379.046-3.22c.1-2.143,1.105-3.168,3.267-3.267.841-.038,1.092-.046,3.22-.046ZM7.969,0C5.8,0,5.534.009,4.684.048,1.79.181.181,1.786.048,4.683.009,5.534,0,5.8,0,7.969S.009,10.4.048,11.255c.133,2.894,1.739,4.5,4.635,4.635.851.039,1.122.048,3.286.048s2.436-.009,3.286-.048c2.891-.133,4.5-1.739,4.635-4.635.039-.85.048-1.122.048-3.286s-.009-2.435-.048-3.285c-.13-2.891-1.738-4.5-4.635-4.635C10.4.009,10.133,0,7.969,0Zm0,3.877a4.092,4.092,0,1,0,4.092,4.092A4.092,4.092,0,0,0,7.969,3.877Zm0,6.748a2.656,2.656,0,1,1,2.656-2.656A2.656,2.656,0,0,1,7.969,10.625Zm4.254-7.866a.956.956,0,1,0,.956.956A.957.957,0,0,0,12.223,2.759Z" transform="translate(7 7)"/></g></svg>