<svg xmlns="http://www.w3.org/2000/svg" width="58.058" height="32.424" viewBox="0 0 58.058 32.424"><defs><style>.a{fill:#f66;}.b,.d{fill:#fff;}.c{fill:#777eff;}.d{font-size:10px;font-family:TTNormsPro-BoldItalic, TT Norms Pro;font-weight:700;font-style:italic;}</style></defs><g transform="translate(0 0)"><g transform="translate(25.614 9.958)"><path class="a" d="M381.873,301.465h20.86l1.981-11.233c1.094-6.2-3.048-11.233-9.252-11.233h-9.628a13.981,13.981,0,0,0-13.213,11.233h0C371.528,296.437,375.669,301.465,381.873,301.465Z" transform="translate(-372.446 -279)"/><g transform="translate(8.735 9.112)"><ellipse class="b" cx="1.577" cy="1.322" rx="1.577" ry="1.322" transform="matrix(0.738, -0.675, 0.675, 0.738, 0, 2.291)"/><ellipse class="b" cx="1.577" cy="1.322" rx="1.577" ry="1.322" transform="matrix(0.738, -0.675, 0.675, 0.738, 5.444, 2.13)"/><ellipse class="b" cx="1.577" cy="1.322" rx="1.577" ry="1.322" transform="matrix(0.738, -0.675, 0.675, 0.738, 10.832, 2.291)"/></g></g><path class="c" d="M397.164,271.465H375.727l2.035-11.233A14.26,14.26,0,0,1,391.341,249h9.894c6.376,0,10.632,5.029,9.508,11.233h0A14.261,14.261,0,0,1,397.164,271.465Z" transform="translate(-375.727 -249)"/><text class="d" transform="translate(16.972 14.136)"><tspan x="-2.725" y="0">?</tspan></text></g></svg>