<svg xmlns="http://www.w3.org/2000/svg" width="22.007" height="33" viewBox="0 0 22.007 33"><defs><style>.a{fill:#f66;}</style></defs><g transform="translate(0 0)"><path class="a" d="M41.57,12.381a11,11,0,1,0-19.857,9.441l.554,1.09.335.655.432.841.2.391.175.339.033.067.294.577.309.607.071.138.127.246.275.543.082.16.5.975.007.011.342.67.082.164.249.487.093.186.145.287.056.108.253.5.13.253.2.4.316.621.115.227.123.238.127.253.045.086h0l.26.514.011-.007,0,0-.007,0h0l.629,1.235.033.063.063.123.037.074.339.662.026.056.2.4.063.127.134.264.011.026.067.134.026.052.056.112.037.071.033.067.011.019L29.45,37l.037.074.052.1.033.048.145.283.074.149h0a1.837,1.837,0,0,0,3.275,0h0l.074-.145.149-.29.022-.048.056-.108.037-.071h0l.033-.067h0l.007-.015.037-.074.033-.063.041-.078.041-.082.074-.145.007-.019-.015-.007.138-.272h0l.06-.115.216-.42.007-.019.461-.9.041-.082.554-1.083.019-.033.253-.495.063-.119,0-.007L37.4,29.149,37.47,29l.175-.342.186-.365.309-.607.089-.175.167-.327.432-.845.324-.636.041-.082.015.007.141-.279,0,0,.179-.35.309-.6.052-.1.305-.6.48-.938.179-.35.3-.581a11.015,11.015,0,0,0,.417-9.445ZM31.434,20.337a3.673,3.673,0,1,1,3.673-3.673A3.678,3.678,0,0,1,31.434,20.337Z" transform="translate(-20.43 -5.66)"/></g></svg>