<svg xmlns="http://www.w3.org/2000/svg" width="26.497" height="33" viewBox="0 0 26.497 33"><defs><style>.a{fill:#f66;}</style></defs><g transform="translate(0 0)"><path class="a" d="M8.217,2.667a4.758,4.758,0,0,0-1.338.15A8.063,8.063,0,0,0,5.6,3.268a6.977,6.977,0,0,0-2,3,9.861,9.861,0,0,0-.7,2.03l0,.017c-.06.264-.1.532-.136.8-.018.12-.046.24-.059.361-.022.2-.025.4-.035.606-.009.169-.028.34-.028.507v.029c0,.45.019.748.056,1.2a10.184,10.184,0,0,0,.245,1.351c.113.5.2.874.263,1.125.056.174.184.579.308.975.036.118.046.166.087.3.188.6.3,1.051.339,1.2.241.824.514,1.59.8,2.323.236.619.483,1.215.757,1.763a30.313,30.313,0,0,0,2.377,3.923c.517.763,1.064,1.54,1.671,2.341a33.847,33.847,0,0,0,3.35,3.571c.547.516,1.091,1,1.629,1.415a15.563,15.563,0,0,0,1.838,1.207q.412.239.849.439c.211.1.4.225.623.322.113.047.4.186.9.422.188.088.248.112.395.176a3.045,3.045,0,0,0,.388.173c.071.031.222.1.27.12.07.028.222.079.317.114a3.765,3.765,0,0,0,.578.29,1.842,1.842,0,0,1,.534.088l.089.029a4.134,4.134,0,0,1,.451.182h1a6.184,6.184,0,0,0,3.5-1.172,5.638,5.638,0,0,0,2.294-2.485,6.6,6.6,0,0,0,.2-.723s0-.006,0-.009c.066-.263.13-.561.193-.861a10,10,0,0,0,.188-1.649,2.3,2.3,0,0,0-.056-.6c-.009-.018-.08-.079-.1-.106a2.431,2.431,0,0,0-.5-.5c0,.008-.01.018-.014.026-.223-.183-.464-.377-.816-.618-.238-.15-.576-.45-1.016-.75s-.84-.45-1.2-.75-.685-.45-1-.75c-.051,0-.207-.149-.47-.448a5.333,5.333,0,0,1-.677-.451.716.716,0,0,0-.527-.15,1.323,1.323,0,0,0-.94.6c-.377.45-.724,1.05-1.037,1.5a9.494,9.494,0,0,1-1,1.5c-.351.45-.64.6-.865.6a.591.591,0,0,1-.435-.152c-.162,0-.288-.15-.376-.15s-.238-.149-.451-.3-.332-.3-.357-.3a21.792,21.792,0,0,1-4.422-4.049,25.561,25.561,0,0,1-3.275-5.549,2.977,2.977,0,0,1-.226-.451c-.125-.3-.213-.451-.263-.6-.037,0-.088-.149-.15-.448a1.163,1.163,0,0,1-.094-.451,2.187,2.187,0,0,1,.527-1.2c.364-.45.752-.748,1.166-1.2a5.933,5.933,0,0,0,1.169-1.2,2.675,2.675,0,0,0,.545-1.2,2.245,2.245,0,0,0-.132-.75c-.088-.15-.226-.45-.414-.75-.176-.45-.282-.6-.32-.6-.188-.45-.385-.9-.585-1.351s-.42-.9-.658-1.5c-.238-.45-.426-.9-.564-1.2a5.114,5.114,0,0,0-1-1.8Z" transform="translate(-2.646 -2.667)"/></g></svg>