<svg xmlns="http://www.w3.org/2000/svg" width="30.516" height="26.688" viewBox="0 0 30.516 26.688"><defs><style>.a{fill:#f66;}</style></defs><path class="a" d="M14.99,3.694V6.06H24.5V3.694a1.189,1.189,0,0,0-1.189-1.189H16.179A1.189,1.189,0,0,0,14.99,3.694Z" transform="translate(3.623 -2.505)"/><path class="a" d="M31.516,9.765a2.419,2.419,0,0,0-2.543-2.27H16.245V20.48a3.865,3.865,0,0,1-3.814,3.892H8.616A3.865,3.865,0,0,1,4.8,20.48V7.495H3.543A2.428,2.428,0,0,0,1,9.765V25.98a2.428,2.428,0,0,0,2.543,2.27h25.43a2.419,2.419,0,0,0,2.543-2.27ZM20.072,24.378a1.3,1.3,0,1,1,1.271-1.3A1.284,1.284,0,0,1,20.072,24.378Zm0-3.892a1.3,1.3,0,1,1,1.271-1.3A1.284,1.284,0,0,1,20.072,20.486Zm0-3.892a1.3,1.3,0,1,1,1.271-1.3A1.284,1.284,0,0,1,20.072,16.595Zm3.815,7.783a1.3,1.3,0,1,1,1.271-1.3A1.284,1.284,0,0,1,23.887,24.378Zm0-3.892a1.3,1.3,0,1,1,1.271-1.3A1.284,1.284,0,0,1,23.887,20.486Zm0-3.892a1.3,1.3,0,1,1,1.271-1.3A1.284,1.284,0,0,1,23.887,16.595ZM27.7,24.378a1.3,1.3,0,1,1,1.271-1.3A1.284,1.284,0,0,1,27.7,24.378Zm0-3.892a1.3,1.3,0,1,1,1.271-1.3A1.284,1.284,0,0,1,27.7,20.486Zm0-3.892a1.3,1.3,0,1,1,1.271-1.3A1.284,1.284,0,0,1,27.7,16.595Zm0-3.911H20.072a1.3,1.3,0,0,1,0-2.594H27.7a1.3,1.3,0,0,1,0,2.594Z" transform="translate(-1 -1.561)"/><path class="a" d="M7.179,4.5A1.193,1.193,0,0,0,5.99,5.694V19.963a1.185,1.185,0,0,0,1.189,1.189h3.567a1.185,1.185,0,0,0,1.189-1.189V5.694a1.193,1.193,0,0,0-1.189-1.189H7.179Z" transform="translate(0.463 -2.127)"/></svg>