<svg xmlns="http://www.w3.org/2000/svg" width="16.461" height="16.395" viewBox="0 0 16.461 16.395"><defs><style>.a{fill:#fff;}</style></defs><g transform="translate(-33.839 -35.123) rotate(133)"><path class="a" d="M8.334,13.2A4.5,4.5,0,0,1,4.816,8.063,4.2,4.2,0,0,1,9.448,4.176a3.9,3.9,0,0,1,2.029.975L9.858,6.7l4.444,1.2-.211-5.2-1.5,1.417A5.265,5.265,0,0,0,9.647,2.6C6.622,2.135,3.819,4.488,3.4,7.842s1.7,6.474,4.737,6.929a5.324,5.324,0,0,0,5.253-2.483l-1.137-.975A3.924,3.924,0,0,1,8.334,13.2Z" transform="translate(-5.831 -69)"/></g></svg>