<svg xmlns="http://www.w3.org/2000/svg" width="63.67" height="50" viewBox="0 0 63.67 50">
  <g id="share-facebook" transform="translate(-1443.33 -887.84)">
    <path id="share-facebook-2" data-name="share-facebook" d="M361.3,329h37.89l4.408-25c2.434-13.808-6.784-25-20.592-25h-12.89c-13.808,0-26.974,11.192-29.408,25h0C338.276,317.808,347.494,329,361.3,329Z" transform="translate(1103.01 608.84)" fill="#777eff"/>
    <g id="Symbol_11_9" data-name="Symbol 11 – 9" transform="translate(1462.669 899.672)">
      <rect id="Rectangle_392" data-name="Rectangle 392" width="26.594" height="26.594" fill="none"/>
      <path id="Path_1" data-name="Path 1" d="M89.013,26.594V14.479h4.137l.591-4.728H89.013V6.8c0-1.33.443-2.364,2.364-2.364h2.512V.148C93.3.148,91.82,0,90.194,0c-3.546,0-6.058,2.216-6.058,6.205V9.751H80v4.728h4.137V26.594Z" transform="translate(-73.351 0.001)" fill="#fff" fill-rule="evenodd"/>
    </g>
  </g>
</svg>
