<svg xmlns="http://www.w3.org/2000/svg" width="63.669" height="50" viewBox="0 0 63.669 50"><defs><style>.a{fill:#777eff;}.b{fill:none;}.c{fill:#fff;fill-rule:evenodd;}</style></defs><g transform="translate(-858.331 -4688.84)"><path class="a" d="M361.3,329h37.89l4.408-25c2.434-13.808-6.784-25-20.592-25h-12.89c-13.808,0-26.974,11.192-29.408,25h0C338.276,317.808,347.494,329,361.3,329Z" transform="translate(518.01 4409.84)"/><g transform="translate(880.852 4702.145)"><rect class="b" width="23.648" height="23.648" transform="translate(0)"/><path class="c" d="M45.489,21.181A13.672,13.672,0,0,0,59.283,7.387V6.73a10.679,10.679,0,0,0,2.365-2.5,10.906,10.906,0,0,1-2.759.788,5.112,5.112,0,0,0,2.1-2.628A12.05,12.05,0,0,1,57.97,3.577,4.692,4.692,0,0,0,54.422,2a4.936,4.936,0,0,0-4.861,4.861,2.561,2.561,0,0,0,.131,1.051,13.583,13.583,0,0,1-9.985-5.124,5.031,5.031,0,0,0-.657,2.5,5.22,5.22,0,0,0,2.1,4.073A4.429,4.429,0,0,1,38.92,8.7h0a4.8,4.8,0,0,0,3.941,4.73,4.05,4.05,0,0,1-1.314.131,2.236,2.236,0,0,1-.92-.131,4.977,4.977,0,0,0,4.6,3.416,9.919,9.919,0,0,1-6.043,2.1A3.637,3.637,0,0,1,38,18.816a12.4,12.4,0,0,0,7.489,2.365" transform="translate(-38 0.955)"/></g><g transform="translate(877.669 4700.672)"><rect class="b" width="26.594" height="26.594"/></g></g></svg>