<svg xmlns="http://www.w3.org/2000/svg" xmlns:xlink="http://www.w3.org/1999/xlink" width="1331.467" height="1579.226" viewBox="0 0 1331.467 1579.226"><defs><style>.a,.c{fill:none;}.b{clip-path:url(#a);}.c{stroke:#fde900;stroke-width:10px;}</style><clipPath id="a"><rect class="a" width="1103.563" height="1409"/></clipPath></defs><g class="b" transform="matrix(0.985, 0.174, -0.174, 0.985, 244.67, 0)"><g transform="translate(53.536 7.071)"><path class="c" d="M0,0,224.388,224.388,448.776,0,673.164,224.388,897.552,0,1121.94,224.388,1346.328,0l224.388,224.388L1795.1,0l224.388,224.388" transform="translate(-50)"/></g><g transform="translate(53.536 35.071)"><path class="c" d="M0,0,224.388,224.388,448.776,0,673.164,224.388,897.552,0,1121.94,224.388,1346.328,0l224.388,224.388L1795.1,0l224.388,224.388" transform="translate(-50)"/></g><g transform="translate(53.536 63.071)"><path class="c" d="M0,0,224.388,224.388,448.776,0,673.164,224.388,897.552,0,1121.94,224.388,1346.328,0l224.388,224.388L1795.1,0l224.388,224.388" transform="translate(-50)"/></g><g transform="translate(53.536 91.071)"><path class="c" d="M0,0,224.388,224.388,448.776,0,673.164,224.388,897.552,0,1121.94,224.388,1346.328,0l224.388,224.388L1795.1,0l224.388,224.388" transform="translate(-50)"/></g><g transform="translate(53.536 119.071)"><path class="c" d="M0,0,224.388,224.388,448.776,0,673.164,224.388,897.552,0,1121.94,224.388,1346.328,0l224.388,224.388L1795.1,0l224.388,224.388" transform="translate(-50)"/></g><g transform="translate(53.536 147.071)"><path class="c" d="M0,0,224.388,224.388,448.776,0,673.164,224.388,897.552,0,1121.94,224.388,1346.328,0l224.388,224.388L1795.1,0l224.388,224.388" transform="translate(-50)"/></g><g transform="translate(53.536 175.071)"><path class="c" d="M0,0,224.388,224.388,448.776,0,673.164,224.388,897.552,0,1121.94,224.388,1346.328,0l224.388,224.388L1795.1,0l224.388,224.388" transform="translate(-50)"/></g><g transform="translate(53.536 203.071)"><path class="c" d="M0,0,224.388,224.388,448.776,0,673.164,224.388,897.552,0,1121.94,224.388,1346.328,0l224.388,224.388L1795.1,0l224.388,224.388" transform="translate(-50)"/></g><g transform="translate(53.536 231.071)"><path class="c" d="M0,0,224.388,224.388,448.776,0,673.164,224.388,897.552,0,1121.94,224.388,1346.328,0l224.388,224.388L1795.1,0l224.388,224.388" transform="translate(-50)"/></g><g transform="translate(53.536 259.071)"><path class="c" d="M0,0,224.388,224.388,448.776,0,673.164,224.388,897.552,0,1121.94,224.388,1346.328,0l224.388,224.388L1795.1,0l224.388,224.388" transform="translate(-50)"/></g><g transform="translate(53.536 287.071)"><path class="c" d="M0,0,224.388,224.388,448.776,0,673.164,224.388,897.552,0,1121.94,224.388,1346.328,0l224.388,224.388L1795.1,0l224.388,224.388" transform="translate(-50)"/></g><g transform="translate(53.536 315.071)"><path class="c" d="M0,0,224.388,224.388,448.776,0,673.164,224.388,897.552,0,1121.94,224.388,1346.328,0l224.388,224.388L1795.1,0l224.388,224.388" transform="translate(-50)"/></g><g transform="translate(53.536 343.071)"><path class="c" d="M0,0,224.388,224.388,448.776,0,673.164,224.388,897.552,0,1121.94,224.388,1346.328,0l224.388,224.388L1795.1,0l224.388,224.388" transform="translate(-50)"/></g><g transform="translate(53.536 371.071)"><path class="c" d="M0,0,224.388,224.388,448.776,0,673.164,224.388,897.552,0,1121.94,224.388,1346.328,0l224.388,224.388L1795.1,0l224.388,224.388" transform="translate(-50)"/></g><g transform="translate(53.536 399.071)"><path class="c" d="M0,0,224.388,224.388,448.776,0,673.164,224.388,897.552,0,1121.94,224.388,1346.328,0l224.388,224.388L1795.1,0l224.388,224.388" transform="translate(-50)"/></g><g transform="translate(53.536 427.071)"><path class="c" d="M0,0,224.388,224.388,448.776,0,673.164,224.388,897.552,0,1121.94,224.388,1346.328,0l224.388,224.388L1795.1,0l224.388,224.388" transform="translate(-50)"/></g><g transform="translate(53.536 455.071)"><path class="c" d="M0,0,224.388,224.388,448.776,0,673.164,224.388,897.552,0,1121.94,224.388,1346.328,0l224.388,224.388L1795.1,0l224.388,224.388" transform="translate(-50)"/></g><g transform="translate(53.536 483.071)"><path class="c" d="M0,0,224.388,224.388,448.776,0,673.164,224.388,897.552,0,1121.94,224.388,1346.328,0l224.388,224.388L1795.1,0l224.388,224.388" transform="translate(-50)"/></g><g transform="translate(53.536 511.071)"><path class="c" d="M0,0,224.388,224.388,448.776,0,673.164,224.388,897.552,0,1121.94,224.388,1346.328,0l224.388,224.388L1795.1,0l224.388,224.388" transform="translate(-50)"/></g><g transform="translate(53.536 539.071)"><path class="c" d="M0,0,224.388,224.388,448.776,0,673.164,224.388,897.552,0,1121.94,224.388,1346.328,0l224.388,224.388L1795.1,0l224.388,224.388" transform="translate(-50)"/></g><g transform="translate(53.536 567.071)"><path class="c" d="M0,0,224.388,224.388,448.776,0,673.164,224.388,897.552,0,1121.94,224.388,1346.328,0l224.388,224.388L1795.1,0l224.388,224.388" transform="translate(-50)"/></g><g transform="translate(53.536 595.071)"><path class="c" d="M0,0,224.388,224.388,448.776,0,673.164,224.388,897.552,0,1121.94,224.388,1346.328,0l224.388,224.388L1795.1,0l224.388,224.388" transform="translate(-50)"/></g><g transform="translate(53.536 623.071)"><path class="c" d="M0,0,224.388,224.388,448.776,0,673.164,224.388,897.552,0,1121.94,224.388,1346.328,0l224.388,224.388L1795.1,0l224.388,224.388" transform="translate(-50)"/></g><g transform="translate(53.536 651.071)"><path class="c" d="M0,0,224.388,224.388,448.776,0,673.164,224.388,897.552,0,1121.94,224.388,1346.328,0l224.388,224.388L1795.1,0l224.388,224.388" transform="translate(-50)"/></g><g transform="translate(53.536 679.071)"><path class="c" d="M0,0,224.388,224.388,448.776,0,673.164,224.388,897.552,0,1121.94,224.388,1346.328,0l224.388,224.388L1795.1,0l224.388,224.388" transform="translate(-50)"/></g><g transform="translate(53.536 707.071)"><path class="c" d="M0,0,224.388,224.388,448.776,0,673.164,224.388,897.552,0,1121.94,224.388,1346.328,0l224.388,224.388L1795.1,0l224.388,224.388" transform="translate(-50)"/></g><g transform="translate(53.536 735.071)"><path class="c" d="M0,0,224.388,224.388,448.776,0,673.164,224.388,897.552,0,1121.94,224.388,1346.328,0l224.388,224.388L1795.1,0l224.388,224.388" transform="translate(-50)"/></g><g transform="translate(53.536 763.071)"><path class="c" d="M0,0,224.388,224.388,448.776,0,673.164,224.388,897.552,0,1121.94,224.388,1346.328,0l224.388,224.388L1795.1,0l224.388,224.388" transform="translate(-50)"/></g><g transform="translate(53.536 791.071)"><path class="c" d="M0,0,224.388,224.388,448.776,0,673.164,224.388,897.552,0,1121.94,224.388,1346.328,0l224.388,224.388L1795.1,0l224.388,224.388" transform="translate(-50)"/></g><g transform="translate(53.536 819.071)"><path class="c" d="M0,0,224.388,224.388,448.776,0,673.164,224.388,897.552,0,1121.94,224.388,1346.328,0l224.388,224.388L1795.1,0l224.388,224.388" transform="translate(-50)"/></g><g transform="translate(53.536 847.071)"><path class="c" d="M0,0,224.388,224.388,448.776,0,673.164,224.388,897.552,0,1121.94,224.388,1346.328,0l224.388,224.388L1795.1,0l224.388,224.388" transform="translate(-50)"/></g><g transform="translate(53.536 875.071)"><path class="c" d="M0,0,224.388,224.388,448.776,0,673.164,224.388,897.552,0,1121.94,224.388,1346.328,0l224.388,224.388L1795.1,0l224.388,224.388" transform="translate(-50)"/></g><g transform="translate(53.536 903.071)"><path class="c" d="M0,0,224.388,224.388,448.776,0,673.164,224.388,897.552,0,1121.94,224.388,1346.328,0l224.388,224.388L1795.1,0l224.388,224.388" transform="translate(-50)"/></g><g transform="translate(53.536 931.071)"><path class="c" d="M0,0,224.388,224.388,448.776,0,673.164,224.388,897.552,0,1121.94,224.388,1346.328,0l224.388,224.388L1795.1,0l224.388,224.388" transform="translate(-50)"/></g><g transform="translate(53.536 959.071)"><path class="c" d="M0,0,224.388,224.388,448.776,0,673.164,224.388,897.552,0,1121.94,224.388,1346.328,0l224.388,224.388L1795.1,0l224.388,224.388" transform="translate(-50)"/></g><g transform="translate(53.536 987.071)"><path class="c" d="M0,0,224.388,224.388,448.776,0,673.164,224.388,897.552,0,1121.94,224.388,1346.328,0l224.388,224.388L1795.1,0l224.388,224.388" transform="translate(-50)"/></g><g transform="translate(53.536 1015.071)"><path class="c" d="M0,0,224.388,224.388,448.776,0,673.164,224.388,897.552,0,1121.94,224.388,1346.328,0l224.388,224.388L1795.1,0l224.388,224.388" transform="translate(-50)"/></g><g transform="translate(53.536 1043.071)"><path class="c" d="M0,0,224.388,224.388,448.776,0,673.164,224.388,897.552,0,1121.94,224.388,1346.328,0l224.388,224.388L1795.1,0l224.388,224.388" transform="translate(-50)"/></g><g transform="translate(53.536 1071.071)"><path class="c" d="M0,0,224.388,224.388,448.776,0,673.164,224.388,897.552,0,1121.94,224.388,1346.328,0l224.388,224.388L1795.1,0l224.388,224.388" transform="translate(-50)"/></g><g transform="translate(53.536 1099.071)"><path class="c" d="M0,0,224.388,224.388,448.776,0,673.164,224.388,897.552,0,1121.94,224.388,1346.328,0l224.388,224.388L1795.1,0l224.388,224.388" transform="translate(-50)"/></g><g transform="translate(53.536 1127.071)"><path class="c" d="M0,0,224.388,224.388,448.776,0,673.164,224.388,897.552,0,1121.94,224.388,1346.328,0l224.388,224.388L1795.1,0l224.388,224.388" transform="translate(-50)"/></g><g transform="translate(53.536 1155.071)"><path class="c" d="M0,0,224.388,224.388,448.776,0,673.164,224.388,897.552,0,1121.94,224.388,1346.328,0l224.388,224.388L1795.1,0l224.388,224.388" transform="translate(-50)"/></g><g transform="translate(53.536 1183.071)"><path class="c" d="M0,0,224.388,224.388,448.776,0,673.164,224.388,897.552,0,1121.94,224.388,1346.328,0l224.388,224.388L1795.1,0l224.388,224.388" transform="translate(-50)"/></g><g transform="translate(53.536 1211.071)"><path class="c" d="M0,0,224.388,224.388,448.776,0,673.164,224.388,897.552,0,1121.94,224.388,1346.328,0l224.388,224.388L1795.1,0l224.388,224.388" transform="translate(-50)"/></g><g transform="translate(53.536 1239.071)"><path class="c" d="M0,0,224.388,224.388,448.776,0,673.164,224.388,897.552,0,1121.94,224.388,1346.328,0l224.388,224.388L1795.1,0l224.388,224.388" transform="translate(-50)"/></g><g transform="translate(53.536 1267.071)"><path class="c" d="M0,0,224.388,224.388,448.776,0,673.164,224.388,897.552,0,1121.94,224.388,1346.328,0l224.388,224.388L1795.1,0l224.388,224.388" transform="translate(-50)"/></g><g transform="translate(53.536 1295.071)"><path class="c" d="M0,0,224.388,224.388,448.776,0,673.164,224.388,897.552,0,1121.94,224.388,1346.328,0l224.388,224.388L1795.1,0l224.388,224.388" transform="translate(-50)"/></g><g transform="translate(53.536 1323.071)"><path class="c" d="M0,0,224.388,224.388,448.776,0,673.164,224.388,897.552,0,1121.94,224.388,1346.328,0l224.388,224.388L1795.1,0l224.388,224.388" transform="translate(-50)"/></g><g transform="translate(53.536 1351.071)"><path class="c" d="M0,0,224.388,224.388,448.776,0,673.164,224.388,897.552,0,1121.94,224.388,1346.328,0l224.388,224.388L1795.1,0l224.388,224.388" transform="translate(-50)"/></g><g transform="translate(53.536 1379.071)"><path class="c" d="M0,0,224.388,224.388,448.776,0,673.164,224.388,897.552,0,1121.94,224.388,1346.328,0l224.388,224.388L1795.1,0l224.388,224.388" transform="translate(-50)"/></g><g transform="translate(53.536 1407.071)"><path class="c" d="M0,0,224.388,224.388,448.776,0,673.164,224.388,897.552,0,1121.94,224.388,1346.328,0l224.388,224.388L1795.1,0l224.388,224.388" transform="translate(-50)"/></g></g></svg>